<?xml version="1.0" encoding="UTF-8"?>
<svg id="Capa_1" data-name="Capa 1" xmlns="http://www.w3.org/2000/svg" viewBox="0 0 91.87 91.55">
  <defs>
    <style>
      .cls-1 {
        fill: #fff;
      }
    </style>
  </defs>
  <path d="M43.75,6.88c2.76,1.22,3.42-1.82,5.49-2.94,4.28-2.32,8.18,2.09,5.64,6.17l10.97,3.21c5.62-4.6,13.7-14.41,21.85-13.23,2.03.29,3.74,2.18,4.07,4.18,1.21,7.2-8.89,16.63-13.44,21.45l3.11,10.96c5.03-2.38,9.23,2.16,5.56,6.82-.99,1.26-3.38,2.24-2.15,3.95.42.58,1.6-.38,2.48-.34,1.65.07,3.88,1.73,4.14,3.41.66,4.17-3.57,5.16-3.6,7.14l3.89,13.25c-1.25,1.69-4.41,6.65-6.37,3.63l-18.27-25.21v-.56c.33-.75,1.04-1.17,1.86-.93l17.85,24.37,1.74-1.7-12.69-42.82-12.75,11.67c-.21.86,4.47,4.14,2.36,5.95-1.41,1.21-3.52-3.06-4.32-3.98l-23.35,20.1,3.79,10.59c-.06.53-4.41,5.02-4.93,5.16s-.97.09-1.38-.29l-21-21.38,5.36-5.39,10,3.73.79-.11,19.78-23.33L17.37,6.51c-3.35-2.05,1.52-5,3.24-6.46l13.64,3.94c.83-.04,2.71-2.62,3.92-3.23,4.07-2.06,8.05,2.24,5.58,6.12ZM88.53,3.39c-.31-.33-1.74-.81-2.24-.83-6.78-.31-20.16,14.79-24.77,19.77-12.3,13.24-23.7,27.31-35.56,40.94-.38.74,1.82,3,2.71,2.34,6.95-6.12,14.2-11.9,21.2-17.96,10.33-8.95,23.61-19.87,32.49-29.98,2.1-2.39,9.04-11.23,6.18-14.28ZM63.85,15.51c-14.3-3.87-28.43-8.72-42.72-12.4l-1.44,1.46,32.5,23.88,11.65-12.94ZM41.51,3.39c-1.24-1.4-3.22.53-3.86,1.7l3.35.68c.84-.27,1.01-1.83.52-2.38ZM48.78,8.32l3.35.68c2.78-3.31-1.97-3.83-3.35-.68ZM83.24,42.79c3.52-.97,3.11-5.66-.56-3.23l.56,3.23ZM88.57,50.38c-.33-.53-2.21-.61-2.66.31-.25.51.76,3.22,1.1,3.22.96-.66,2.29-2.38,1.56-3.53ZM28.31,56.08c-2.16-.21-5.87-2.77-7.75-2.88-1.01-.06-2.3,1.41-2.67,2.34l5.95,5.94,4.48-5.4ZM35.85,63.61l-1.61.72-4.13,3.75,6.23,5.91,2.31-2.6-2.81-7.79Z"/>
  <path d="M12.05,9.1c1.04-.31,2.53.29,2.22,1.48-.41,1.56-10.53,9.86-11.97,12.12-1.83,1.09-3.15-.84-1.63-2.35,2.27-1.49,9.63-10.72,11.38-11.25Z"/>
  <path d="M81.7,77.67l1.18.12c1.16.83.69,1.55,0,2.52-1.13,1.58-9.02,9.49-10.59,10.59-1.08.76-3.07,1.15-3.06-.54,0-.91,10.99-11.12,12.48-12.69Z"/>
  <path d="M18.15,14.84c1.07-.3,2.26.58,1.73,1.74-.22.48-7.07,7.29-7.53,7.57-.24.14-.44.36-.75.36-.71.09-1.62-.55-1.61-1.28,0-.59,7.6-8.23,8.17-8.39Z"/>
  <path d="M75.96,71.92c1.07-.3,2.26.58,1.73,1.74-.22.48-7.07,7.29-7.53,7.57-.24.14-.44.36-.75.36-.71.09-1.62-.55-1.61-1.28,0-.59,7.6-8.23,8.17-8.39Z"/>
  <path d="M71.66,64.74c.64-.13,1.12-.06,1.56.46.39.47.41.73.16,1.28-.17.37-5.44,5.59-5.83,5.7-.42.12-.8.11-1.18-.12l-.71-1.08c-.02-1.05,4.96-6.03,6-6.24Z"/>
  <path d="M25.33,19.14c.31-.09.61-.11.92,0,.81.38,1.11.87.83,1.75-.3.93-5.5,6.59-7.04,5.57l-.59-1.09c0-.59,5.3-6.07,5.88-6.23Z"/>
  <path class="cls-1" d="M88.53,3.39c2.86,3.04-4.09,11.89-6.18,14.28-8.88,10.11-22.17,21.03-32.49,29.98-6.99,6.06-14.25,11.84-21.2,17.96-.89.65-3.09-1.6-2.71-2.34,11.86-13.62,23.26-27.7,35.56-40.94,4.62-4.97,18-20.07,24.77-19.77.51.02,1.93.5,2.24.83Z"/>
  <path class="cls-1" d="M63.85,15.51l-11.65,12.94L19.7,4.56l1.44-1.46c14.29,3.68,28.42,8.53,42.72,12.4Z"/>
  <polygon class="cls-1" points="35.85 63.61 38.65 71.41 36.34 74 30.11 68.09 34.24 64.34 35.85 63.61"/>
  <path class="cls-1" d="M28.31,56.08l-4.48,5.4-5.95-5.94c.37-.92,1.67-2.4,2.67-2.34,1.88.11,5.59,2.67,7.75,2.88Z"/>
  <path class="cls-1" d="M83.24,42.79l-.56-3.23c3.67-2.43,4.08,2.25.56,3.23Z"/>
  <path class="cls-1" d="M48.78,8.32c1.38-3.15,6.13-2.64,3.35.68l-3.35-.68Z"/>
  <path class="cls-1" d="M41.51,3.39c.49.56.33,2.11-.52,2.38l-3.35-.68c.65-1.17,2.62-3.1,3.86-1.7Z"/>
  <path class="cls-1" d="M88.57,50.38c.73,1.15-.6,2.87-1.56,3.53-.34,0-1.35-2.7-1.1-3.22.45-.92,2.33-.84,2.66-.31Z"/>
</svg>