<?xml version="1.0" encoding="UTF-8"?>
<svg id="Capa_1" data-name="Capa 1" xmlns="http://www.w3.org/2000/svg" viewBox="0 0 800.81 442.77">
  <defs>
    <style>
      .cls-1 {
        fill: #fff;
      }

      .cls-2 {
        fill: #2ecc71;
      }
    </style>
  </defs>
  <path class="cls-2" d="M.56,4.6c-.9,7.1-.7,23.1.5,30.4,2.7,17,10.4,31.4,23.9,45,16.9,17.1,39,29.6,87.5,49.5,42.6,17.4,60.9,31.1,71,53,3.2,6.9,6.5,18.2,6.5,22.1,0,1-1.1-.6-2.3-3.6-2.8-6.8-10-17.9-15.8-24.4-11.4-12.8-31.8-24-75.9-41.6-41-16.3-62.9-27.8-81.7-43.1-4-3.3-7.6-5.9-7.9-5.9-1.1,0,.5,18.1,2.1,24.6,6.1,24,25.2,43.7,55.1,56.8,10.4,4.6,18.5,7.4,48.4,16.6,22.2,6.9,37.9,14.2,45.9,21.4,4.3,3.8,10.9,13.5,12.9,18.9,2.4,6.3,4,18.3,2.3,17.3-.6-.4-1.1-1.6-1.1-2.7,0-3.5-4.2-11-9.4-16.7-11.1-12.2-25.1-18.7-64.6-30.2-39.7-11.6-47.9-14.7-63.9-24.4l-9.3-5.6.7,5.8c2.3,19.3,9.1,31.1,24,41.8,12.8,9.1,25.4,13.4,60.3,20.4,25.5,5.1,33.8,7.4,40.1,11.1,6.7,4.1,12.1,9.9,13.6,14.9l.7,2.5-2.8-2.7c-3.7-3.4-11.1-7.1-19.7-9.7-6.6-2-12.2-2.8-49.2-7.1-9.9-1.2-22.2-2.9-27.2-3.9-6.4-1.2-9.3-1.4-9.3-.7,0,2.3,8.3,13.7,13.2,18.1,14.4,12.9,31.2,18.7,62.3,21.5,6.6.6,13.7,1.6,15.8,2.2,4.8,1.4,9.7,5.9,9.7,8.7,0,1.2.4,2.1.9,2.1,1.6,0,26.2-24.3,32.4-32.1,14.4-17.9,22.1-36.5,24.8-59.5.8-6.5.8-11.6,0-18-3.1-25.3-12.4-44.8-29.1-60.8-15.2-14.5-32.8-24.1-83-45.3C67.86,56.5,38.96,37.3,14.36,12.3,7.66,5.5,1.96,0,1.76,0c-.3,0-.8,2.1-1.2,4.6Z"/>
  <path class="cls-1" d="M535.55,252l2.6-8.5c1.6-4.4,4-11,5.5-14.8l2.6-6.7h55.5l2,4.7c1.1,2.7,3.7,9.4,5.8,15l3.8,10.3h32.3l-4.7-11.8c-2.6-6.4-15.2-38.1-28.1-70.5l-23-57.7h-30.31l-.69,1.7c-.9,2.4-39.8,99.2-51.3,127.7-2,4.9-3.6,10.1-3.6,10.6M613.34,252,574.46,198c-11.4,0-18.5-.4-18.5-1,0-.5,3.6-10.1,7.9-21.2,4.3-11.2,8.5-22.2,9.2-24.6l1.2-4.2,4.7,12.7c2.6,7.1,6.8,18.1,9.4,24.6,2.5,6.6,4.6,12.3,4.6,12.8s-8.2.9-18.5.9Z"/>
  <path class="cls-1" d="M256.96,182.2v69.8h33.89c38.4-.5,42.21-1.1,57.41-9,15.2-7.8,25.2-20,30.7-37.3,3.1-10,3.9-29.1,1.6-40.5-5-25.2-21.1-42.5-46.6-50.1-7-2.1-9.8-2.3-42.2-2.7l-34.8-.4v70.2ZM286.96,137.2h10.2c5.7,0,13.5.5,17.3,1,20,2.9,37.09,19.8,37.06,40.49.56,22.22-7.46,36.81-25.26,43.51-6.9,2.6-20.1,4.2-30.9,3.8l-7.9-.3"/>
  <path class="cls-1" d="M401.96,112v140h92v-25h-62v-33h55v-24h-55v-32h62v-26"/>
  <path class="cls-1" d="M685.81,252l.1-45.3c0-35.3.3-44.8,1.2-43.4.7,1,10.3,16.2,21.4,33.8s20.4,32.1,20.7,32.2c.5.2,22.1-33.4,38-59,2.8-4.5,5.3-8.2,5.6-8.3.3,0,.4,20.2.2,45l-.2,45h28V112h-28.9l-16.4,26.7c-9,14.8-18.6,30.6-21.2,35.3s-4.9,8.6-5,8.8c-.2.2-2.1-3.2-4.4-7.5s-11.7-20.3-20.9-35.5l-16.7-27.8h-29.5v140"/>
  <path class="cls-1" d="M748.46,304.4c-15.8,3.9-25,14.5-24.8,28.5.1,16,8.3,23.5,33.6,30.6,6.7,1.9,13.7,4.2,15.5,5.2,6.8,3.5,8.4,12.7,3.2,18.6-7.8,9-28.4,6.8-34.9-3.7-1.2-1.8-2.05-4.07-2.4-5-.19-.51-.53-1.61-1.04-1.62-1.04-.03-2.58.04-8.35.43-5.4.4-9.9.9-10,1-.7.7,3.1,11.3,5.2,14.6,3.4,5.3,10,10.6,16.4,13.2,4.8,1.9,7.6,2.2,18.6,2.2,14.7.1,20.4-1.5,28.8-7.9,12.7-9.7,13.8-31.2,2.1-41.4-5.3-4.7-10.2-6.8-24.5-10.6-14-3.8-16.1-4.6-19.8-7.9-3.4-3-4.3-6.2-3.1-10.5,2.9-11,19.8-14.8,29-6.5,2.1,1.9,4.3,4.8,5,6.5l1.04,2.49c.15.37.52.6.92.59l8.94-.37q9.6-.3,9.3-2.8c-.7-5-5.6-14.1-9.4-17.6-9-8.1-25.5-11.4-39.3-8Z"/>
  <path class="cls-1" d="M107.06,308.2c-.5,1.3-2.5,6.3-4.4,11.3-1.9,4.9-10.2,25.9-18.4,46.5-8.3,20.6-15.3,38.4-15.7,39.5-.07,1.78-.16,1.44,9.57,1.46,12.78.03,10.73,1.14,15.93-13.26l2.63-7.14c.34-.94,1.24-1.56,2.24-1.55l18.84.18,19,.28c.97.01,1.83.62,2.17,1.52l3.53,9.3,3.53,9.31c.34.9.32,1.49,2.16,1.52h9.15c6.76-.18,10.57.46,10.27-.14-.2-.6-9.32-23.89-20.12-51.29l-19.21-48.21c-.36-.9-1.23-1.49-2.19-1.49h-8.3c-9.3,0-9.65.15-10.7,2.2ZM131.66,366.7c-.59.91-2.8.9-14.2.9s-14.6.1-14.2-.9c7.6-18.7,14.2-36.76,14.2-38.06"/>
  <path class="cls-1" d="M191.46,305.79l.3,50.71.2,50.69h19v-101.48"/>
  <path class="cls-1" d="M245.96,356.6v50.4h19v-35h16.5l11,17.5,11.26,17.91,10.8.08c6.1,0,11.44.16,11.44-.04,0-.3-5.3-9.56-11.8-19.66l-11.9-18.3,4.63-3.08c4.09-2.72,7.64-6.2,10.29-10.33,1.53-2.39,2.34-4.34,3.06-7.26,1.59-6.46,1.55-13.22,0-19.69-1.28-5.32-2.88-9.68-5.99-13.23-2.51-2.86-6.42-5.29-9.95-6.7-5.88-2.35-14.07-3.76-34.31-3.65h-24.02v51.04ZM293.66,326c5.7,2.5,7.7,6,7.8,13.1,0,6.2-1.6,9.4-6.9,13.3-2.4,1.8-4.5,2.1-16.2,2.4l-13.4.4v-31.7l12.2.3c9.2.3,13.4.8,16.5,2.2Z"/>
  <path class="cls-1" d="M353.96,305.01v102.5l33.06.07h32.94v-18.68l-23.2.1-23.3.1v-84.09"/>
  <path class="cls-1" d="M447.96,304.69v103.01h9.52l9.48-.08v-102.93"/>
  <path class="cls-1" d="M502.85,304.46c-.3,9.6.21,103.56.61,103.36.3-.1,4.39.02,9.29.02l9.31.02-.31-35.86c-.2-19.3-.3-35-.2-35s11.5,15.7,25.5,35l26.1,35.86h18.8v-103.78l-9.54.04-9.45.04-.21,36.94-.3,35-25.5-34.4-25.5-34.5-2.19-2.78c-5-.08-16.42.04-16.42.04Z"/>
  <path class="cls-1" d="M626.96,303.93v104.14h69v-18.07h-50v-25l21.3-.2,21.2-.3v-17l-21-.2-21-.2-.3-11.5-.3-11.6h48.85l-.08-20.36-9.36.04"/>
</svg>