<?xml version="1.0" encoding="UTF-8"?>
<svg id="Capa_1" data-name="Capa 1" xmlns="http://www.w3.org/2000/svg" viewBox="0 0 1704.35 933.35">
  <defs>
    <style>
      .cls-1 {
        fill: #004225;
      }

      .cls-2 {
        fill: #2ecc71;
      }

      .cls-3 {
        fill: #2a3d2e;
      }
    </style>
  </defs>
  <path class="cls-2" d="M695.62,9.47c-1.85,14.62-1.44,47.57,1.03,62.6,5.56,35.01,21.42,64.66,49.22,92.67,34.8,35.21,80.31,60.96,180.19,101.94,87.73,35.83,125.41,64.04,146.21,109.14,6.59,14.21,13.39,37.48,13.39,45.51,0,2.06-2.27-1.24-4.74-7.41-5.77-14-20.59-36.86-32.54-50.25-23.48-26.36-65.49-49.42-156.3-85.67-84.43-33.57-129.53-57.25-168.25-88.76-8.24-6.8-15.65-12.15-16.27-12.15-2.27,0,1.03,37.27,4.32,50.66,12.56,49.42,51.89,89.99,113.47,116.97,21.42,9.47,38.1,15.24,99.67,34.18,45.72,14.21,78.05,29.24,94.52,44.07,8.86,7.83,22.45,27.8,26.57,38.92,4.94,12.97,8.24,37.69,4.74,35.63-1.24-.82-2.27-3.29-2.27-5.56,0-7.21-8.65-22.65-19.36-34.39-22.86-25.12-51.69-38.51-133.03-62.19-81.75-23.89-98.64-30.27-131.59-50.25l-19.15-11.53,1.44,11.94c4.74,39.74,18.74,64.04,49.42,86.08,26.36,18.74,52.31,27.59,124.18,42.01,52.51,10.5,69.6,15.24,82.58,22.86,13.8,8.44,24.92,20.39,28.01,30.68l1.44,5.15-5.77-5.56c-7.62-7-22.86-14.62-40.57-19.98-13.59-4.12-25.12-5.77-101.32-14.62-20.39-2.47-45.72-5.97-56.01-8.03-13.18-2.47-19.15-2.88-19.15-1.44,0,4.74,17.09,28.21,27.18,37.27,29.65,26.57,64.25,38.51,128.3,44.28,13.59,1.24,28.21,3.29,32.54,4.53,9.88,2.88,19.98,12.15,19.98,17.92,0,2.47.82,4.32,1.85,4.32,3.29,0,53.95-50.04,66.72-66.1,29.65-36.86,45.51-75.17,51.07-122.53,1.65-13.39,1.65-23.89,0-37.07-6.38-52.1-25.54-92.26-59.93-125.21-31.3-29.86-67.55-49.63-170.92-93.29-72.28-30.48-131.8-70.02-182.46-121.5-13.8-14-25.54-25.33-25.95-25.33-.62,0-1.65,4.32-2.47,9.47Z"/>
  <g>
    <path class="cls-1" d="M693.94,704.77l-30.06-75.4h-39.6l-.91,2.22c-1.18,3.14-52.01,129.64-67.04,166.88-2.61,6.4-4.7,13.2-4.7,13.85h41.3s3.39-11.11,3.39-11.11c2.09-5.75,5.23-14.37,7.19-19.34l3.4-8.76h72.53l2.61,6.14c1.44,3.53,4.84,12.28,7.58,19.6l4.97,13.46h42.21l-6.14-15.42c-3.4-8.36-19.86-49.79-36.72-92.13ZM643.78,741.76c-14.9,0-24.18-.52-24.18-1.31,0-.65,4.7-13.2,10.32-27.7,5.62-14.64,11.11-29.01,12.02-32.15l1.57-5.49,6.14,16.6c3.4,9.28,8.89,23.65,12.28,32.15,3.27,8.62,6.01,16.07,6.01,16.73s-10.72,1.18-24.18,1.18Z"/>
    <path class="cls-1" d="M329.49,633.42c-9.15-2.74-12.81-3.01-55.15-3.53l-45.48-.52v182.95h44.29c50.18-.65,55.15-1.44,75.02-11.76,19.86-10.19,32.93-26.14,40.12-48.74,4.05-13.07,5.1-38.03,2.09-52.93-6.53-32.93-27.57-55.54-60.9-65.47ZM319.43,773.38c-9.02,3.4-26.27,5.49-40.38,4.97l-10.32-.39-.65-115.65h13.33c7.45,0,17.64.65,22.61,1.31,26.14,3.79,48.47,25.87,48.43,52.92.74,29.04-9.75,48.1-33.01,56.86Z"/>
    <polygon class="cls-1" points="418.35 722.15 418.35 812.32 478.47 812.32 538.58 812.32 538.58 796.64 538.58 779.65 498.07 779.65 457.56 779.65 457.56 758.09 457.56 736.53 493.5 736.53 529.43 736.53 529.43 720.85 529.43 705.17 493.5 705.17 457.56 705.17 457.56 684.26 457.56 663.35 498.07 663.35 538.58 663.35 538.58 647.01 538.58 629.37 418.35 629.37 418.35 722.15"/>
    <path class="cls-1" d="M920.76,629.37h-18.95l-21.43,34.89c-11.76,19.34-24.31,39.99-27.7,46.13-3.4,6.14-6.4,11.24-6.53,11.5-.26.26-2.74-4.18-5.75-9.8-3.01-5.62-15.29-26.53-27.31-46.39l-21.82-36.33h-38.55v182.95h36.59l.13-59.2c0-46.13.39-58.55,1.57-56.72.91,1.31,13.46,21.17,27.97,44.17,14.51,23,26.66,41.95,27.05,42.08.65.26,28.88-43.65,49.66-77.1,3.66-5.88,6.93-10.72,7.32-10.85.39,0,.52,26.4.26,58.81l-.26,58.81h36.59v-182.95h-18.82Z"/>
  </g>
  <g>
    <path class="cls-1" d="M1696.21,724.21c-5.3-4.7-10.2-6.8-24.5-10.6-14-3.8-16.1-4.6-19.8-7.9-3.4-3-4.3-6.2-3.1-10.5,2.9-11,19.8-14.8,29-6.5,2.1,1.9,4.3,4.8,5,6.5l1.04,2.49c.15.37.52.6.92.59l8.94-.37q9.6-.3,9.3-2.8c-.7-5-5.6-14.1-9.4-17.6-9-8.1-25.5-11.4-39.3-8-15.8,3.9-25,14.5-24.8,28.5.1,16,8.3,23.5,33.6,30.6,6.7,1.9,13.7,4.2,15.5,5.2,6.8,3.5,8.4,12.7,3.2,18.6-7.8,9-28.4,6.8-34.9-3.7-1.2-1.8-2.05-4.07-2.4-5-.19-.51-.53-1.61-1.04-1.62-1.04-.03-2.58.04-8.35.43-5.4.4-9.9.9-10,1-.7.7,3.1,11.3,5.2,14.6,3.4,5.3,10,10.6,16.4,13.2,4.8,1.9,7.6,2.2,18.6,2.2,14.7.1,20.4-1.5,28.8-7.9,12.7-9.7,13.8-31.2,2.1-41.4Z"/>
    <path class="cls-1" d="M1053.31,720.81l-19.21-48.21c-.36-.9-1.23-1.49-2.19-1.49h-8.3c-9.3,0-9.65.15-10.7,2.2-.5,1.3-2.5,6.3-4.4,11.3-1.9,4.9-10.2,25.9-18.4,46.5-8.3,20.6-15.3,38.4-15.7,39.5-.07,1.78-.16,1.44,9.57,1.46,12.78.03,10.73,1.14,15.93-13.26l2.63-7.14c.34-.94,1.24-1.56,2.24-1.55l18.84.18,19,.28c.97.01,1.83.62,2.17,1.52l3.53,9.3,3.53,9.31c.34.9.32,1.49,2.16,1.52h9.15c6.76-.18,10.57.46,10.27-.14-.2-.6-9.32-23.89-20.12-51.29ZM1023.31,732.71c-11.4,0-14.6.1-14.2-.9,7.6-18.7,14.2-36.76,14.2-38.06l14.2,38.06c-.59.91-2.8.9-14.2.9Z"/>
    <polygon class="cls-1" points="1097.61 721.61 1097.81 772.3 1107.33 772.3 1116.81 772.3 1116.81 721.61 1116.81 670.82 1097.31 670.9 1097.61 721.61"/>
    <path class="cls-1" d="M1208.11,734.61l4.63-3.08c4.09-2.72,7.64-6.2,10.29-10.33,1.53-2.39,2.34-4.34,3.06-7.26,1.59-6.46,1.55-13.22,0-19.69-1.28-5.32-2.88-9.68-5.99-13.23-2.51-2.86-6.42-5.29-9.95-6.7-5.88-2.35-14.07-3.76-34.31-3.65h-24.02v101.44h19v-35h16.5l11,17.5,11.26,17.91,10.8.08c6.1,0,11.44.16,11.44-.04,0-.3-5.3-9.56-11.8-19.66l-11.9-18.3ZM1200.41,717.51c-2.4,1.8-4.5,2.1-16.2,2.4l-13.4.4v-31.7l12.2.3c9.2.3,13.4.8,16.5,2.2,5.7,2.5,7.7,6,7.8,13.1,0,6.2-1.6,9.4-6.9,13.3Z"/>
    <polygon class="cls-1" points="1279.31 754.21 1279.31 712.71 1279.31 670.12 1259.81 670.12 1259.81 721.61 1259.81 772.62 1292.87 772.69 1325.81 772.69 1325.81 763.11 1325.81 754.01 1302.61 754.11 1279.31 754.21"/>
    <polygon class="cls-1" points="1353.81 721.61 1353.81 772.81 1363.33 772.81 1372.81 772.73 1372.81 721.61 1372.81 669.8 1353.81 669.8 1353.81 721.61"/>
    <path class="cls-1" d="M1478.82,669.27l-.21,36.94-.3,35-25.5-34.4-25.5-34.5-2.19-2.78c-5-.08-16.42.04-16.42.04-.3,9.6.21,103.56.61,103.36.3-.1,4.39.02,9.29.02l9.31.02-.31-35.86c-.2-19.3-.3-35-.2-35s11.5,15.7,25.5,35l26.1,35.86h18.8v-103.78l-9.54.04-9.45.04Z"/>
    <polygon class="cls-1" points="1551.81 755.11 1551.81 742.61 1551.81 730.11 1573.11 729.91 1594.31 729.61 1594.31 721.11 1594.31 712.61 1573.31 712.41 1552.31 712.21 1552.01 700.71 1551.71 689.11 1576.31 689.11 1600.56 689.11 1600.47 668.75 1591.11 668.79 1532.81 669.04 1532.81 722.11 1532.81 773.18 1567.38 773.18 1601.81 773.18 1601.81 763.61 1601.81 755.11 1576.81 755.11 1551.81 755.11"/>
  </g>
  <g>
    <path class="cls-3" d="M537.6,920.43l-6.07-45.24h6.33l5.62,41.68h-3.3l22.68-41.68h5.95l5.69,41.68h-3.17l22.49-41.68h6.4l-24.17,45.24h-6.85l-5.43-38.58,1.87-.06-21.2,38.64h-6.85Z"/>
    <path class="cls-3" d="M621.87,885.85c3.02,0,5.54.6,7.56,1.81,2.02,1.21,3.44,2.96,4.23,5.27.8,2.31.87,5.07.23,8.3l-3.81,19.19h-6.2l3.81-19.19c.65-3.1.34-5.51-.9-7.24-1.25-1.72-3.49-2.58-6.72-2.58s-6.07.89-8.27,2.68c-2.2,1.79-3.66,4.53-4.4,8.24l-3.62,18.09h-6.2l9.56-47.95h6.2l-4.72,23.52-1.42-2.65c1.64-2.58,3.72-4.48,6.24-5.69,2.52-1.21,5.33-1.81,8.43-1.81Z"/>
    <path class="cls-3" d="M657.93,920.82c-3.36,0-6.27-.61-8.72-1.84-2.46-1.23-4.35-2.95-5.69-5.17-1.34-2.22-2-4.84-2-7.85,0-3.88.84-7.32,2.52-10.34,1.68-3.01,3.97-5.4,6.88-7.14,2.91-1.74,6.21-2.62,9.92-2.62,3.1,0,5.79.59,8.08,1.78,2.28,1.19,4.06,2.88,5.33,5.07,1.27,2.2,1.91,4.85,1.91,7.95,0,.78-.04,1.56-.13,2.36-.09.8-.19,1.54-.32,2.23h-29.66l.78-4.52h25.91l-2.52,1.55c.39-2.41.22-4.45-.52-6.11-.73-1.66-1.89-2.93-3.46-3.81-1.57-.88-3.46-1.32-5.65-1.32-2.58,0-4.86.61-6.82,1.84-1.96,1.23-3.48,2.93-4.56,5.11-1.08,2.18-1.62,4.73-1.62,7.66,0,3.1.89,5.5,2.68,7.21,1.79,1.7,4.51,2.55,8.17,2.55,2.15,0,4.16-.36,6.01-1.07,1.85-.71,3.38-1.67,4.59-2.88l2.65,4.46c-1.64,1.59-3.68,2.81-6.14,3.65-2.46.84-5,1.26-7.63,1.26Z"/>
    <path class="cls-3" d="M681.06,920.43l6.79-34.25h5.95l-1.94,9.95-.65-2.46c1.59-2.89,3.62-4.91,6.07-6.07,2.46-1.16,5.49-1.75,9.11-1.75l-1.16,6.01c-.26-.04-.52-.06-.78-.06h-.84c-3.4,0-6.22.93-8.43,2.78-2.22,1.85-3.72,4.76-4.49,8.72l-3.43,17.13h-6.2Z"/>
    <path class="cls-3" d="M723.13,920.82c-3.36,0-6.27-.61-8.72-1.84-2.46-1.23-4.35-2.95-5.69-5.17-1.34-2.22-2-4.84-2-7.85,0-3.88.84-7.32,2.52-10.34,1.68-3.01,3.97-5.4,6.88-7.14,2.91-1.74,6.21-2.62,9.92-2.62,3.1,0,5.79.59,8.08,1.78,2.28,1.19,4.06,2.88,5.33,5.07,1.27,2.2,1.91,4.85,1.91,7.95,0,.78-.04,1.56-.13,2.36-.09.8-.19,1.54-.32,2.23h-29.66l.78-4.52h25.91l-2.52,1.55c.39-2.41.22-4.45-.52-6.11-.73-1.66-1.89-2.93-3.46-3.81-1.57-.88-3.46-1.32-5.65-1.32-2.58,0-4.86.61-6.82,1.84-1.96,1.23-3.48,2.93-4.56,5.11-1.08,2.18-1.62,4.73-1.62,7.66,0,3.1.89,5.5,2.68,7.21,1.79,1.7,4.51,2.55,8.17,2.55,2.15,0,4.16-.36,6.01-1.07,1.85-.71,3.38-1.67,4.59-2.88l2.65,4.46c-1.64,1.59-3.68,2.81-6.14,3.65-2.46.84-5,1.26-7.63,1.26Z"/>
    <path class="cls-3" d="M764.49,920.43l9.05-45.24h17.71c4.57,0,8.47.77,11.7,2.29,3.23,1.53,5.7,3.67,7.4,6.43,1.7,2.76,2.55,6.03,2.55,9.82s-.67,7.59-2,10.89c-1.34,3.3-3.24,6.12-5.72,8.47-2.48,2.35-5.44,4.16-8.89,5.43-3.45,1.27-7.3,1.91-11.57,1.91h-20.23ZM772.05,914.81h12.86c4.48,0,8.31-.89,11.5-2.68,3.19-1.79,5.64-4.24,7.37-7.37,1.72-3.12,2.58-6.67,2.58-10.63,0-2.71-.58-5.07-1.75-7.08-1.16-2-2.92-3.54-5.27-4.62-2.35-1.08-5.27-1.62-8.76-1.62h-11.76l-6.79,33.99Z"/>
    <path class="cls-3" d="M817.03,920.43l6.79-34.25h5.95l-1.94,9.95-.65-2.46c1.59-2.89,3.62-4.91,6.07-6.07,2.46-1.16,5.49-1.75,9.11-1.75l-1.16,6.01c-.26-.04-.52-.06-.78-.06h-.84c-3.4,0-6.22.93-8.43,2.78-2.22,1.85-3.72,4.76-4.49,8.72l-3.43,17.13h-6.2Z"/>
    <path class="cls-3" d="M859.1,920.82c-3.36,0-6.27-.61-8.72-1.84-2.46-1.23-4.35-2.95-5.69-5.17-1.34-2.22-2-4.84-2-7.85,0-3.88.84-7.32,2.52-10.34,1.68-3.01,3.97-5.4,6.88-7.14,2.91-1.74,6.21-2.62,9.92-2.62,3.1,0,5.79.59,8.08,1.78,2.28,1.19,4.06,2.88,5.33,5.07,1.27,2.2,1.91,4.85,1.91,7.95,0,.78-.04,1.56-.13,2.36-.09.8-.19,1.54-.32,2.23h-29.66l.78-4.52h25.91l-2.52,1.55c.39-2.41.22-4.45-.52-6.11-.73-1.66-1.89-2.93-3.46-3.81-1.57-.88-3.46-1.32-5.65-1.32-2.58,0-4.86.61-6.82,1.84-1.96,1.23-3.48,2.93-4.56,5.11-1.08,2.18-1.62,4.73-1.62,7.66,0,3.1.89,5.5,2.68,7.21,1.79,1.7,4.51,2.55,8.17,2.55,2.15,0,4.16-.36,6.01-1.07,1.85-.71,3.38-1.67,4.59-2.88l2.65,4.46c-1.64,1.59-3.68,2.81-6.14,3.65-2.46.84-5,1.26-7.63,1.26Z"/>
    <path class="cls-3" d="M897.29,920.82c-2.89,0-5.47-.59-7.75-1.78-2.28-1.18-4.08-2.88-5.4-5.07-1.31-2.2-1.97-4.85-1.97-7.95,0-2.93.48-5.62,1.45-8.08.97-2.46,2.33-4.59,4.07-6.4,1.75-1.81,3.8-3.21,6.17-4.2,2.37-.99,4.93-1.49,7.69-1.49,2.97,0,5.49.52,7.56,1.55s3.66,2.55,4.78,4.56c1.12,2,1.68,4.45,1.68,7.33,0,4.22-.73,7.96-2.2,11.21-1.47,3.25-3.57,5.78-6.3,7.59-2.74,1.81-6,2.71-9.79,2.71ZM898.65,915.39c2.58,0,4.89-.62,6.91-1.87,2.02-1.25,3.61-2.96,4.75-5.14,1.14-2.18,1.71-4.66,1.71-7.46,0-3.02-.88-5.37-2.65-7.08-1.77-1.7-4.29-2.55-7.56-2.55-2.54,0-4.83.61-6.85,1.84-2.03,1.23-3.62,2.93-4.78,5.11-1.16,2.18-1.74,4.69-1.74,7.53s.88,5.32,2.65,7.04c1.77,1.72,4.29,2.58,7.56,2.58ZM908.53,920.43l1.81-8.85,2.07-7.95.84-8.14,1.81-9.31h6.2l-6.79,34.25h-5.95Z"/>
    <path class="cls-3" d="M975.03,885.85c3.06,0,5.58.6,7.56,1.81,1.98,1.21,3.37,2.96,4.17,5.27.8,2.31.85,5.07.16,8.3l-3.81,19.19h-6.2l3.81-19.19c.65-3.1.38-5.51-.81-7.24-1.19-1.72-3.33-2.58-6.43-2.58s-5.75.88-7.82,2.65c-2.07,1.77-3.47,4.46-4.2,8.08l-3.68,18.29h-6.2l3.88-19.19c.6-3.1.31-5.51-.87-7.24-1.19-1.72-3.33-2.58-6.43-2.58s-5.75.89-7.82,2.68c-2.07,1.79-3.47,4.53-4.2,8.24l-3.62,18.09h-6.2l6.79-34.25h5.95l-1.94,9.82-1.16-2.65c1.59-2.58,3.61-4.48,6.04-5.69,2.43-1.21,5.14-1.81,8.11-1.81,2.33,0,4.35.39,6.07,1.16,1.72.78,3.09,1.93,4.1,3.46,1.01,1.53,1.6,3.37,1.78,5.53l-3.36-.65c1.77-3.19,4.04-5.57,6.82-7.14,2.78-1.57,5.96-2.36,9.53-2.36Z"/>
    <path class="cls-3" d="M1005.4,920.82c-2.89,0-5.61-.38-8.17-1.13-2.56-.75-4.54-1.69-5.91-2.81l2.78-4.91c1.33,1.03,3.07,1.87,5.2,2.52,2.13.65,4.36.97,6.69.97,2.97,0,5.21-.45,6.72-1.36,1.51-.9,2.26-2.13,2.26-3.68,0-1.12-.45-1.97-1.36-2.55s-2.08-1.03-3.52-1.36c-1.44-.32-2.98-.65-4.62-.97-1.64-.32-3.17-.79-4.59-1.39-1.42-.6-2.6-1.48-3.52-2.62-.93-1.14-1.39-2.66-1.39-4.56,0-2.28.65-4.25,1.94-5.91,1.29-1.66,3.1-2.94,5.43-3.85s5.04-1.36,8.14-1.36c2.24,0,4.45.27,6.62.81,2.17.54,3.95,1.3,5.33,2.29l-2.46,4.91c-1.42-.99-3.02-1.69-4.78-2.1-1.77-.41-3.53-.61-5.3-.61-2.89,0-5.06.48-6.53,1.45-1.46.97-2.2,2.19-2.2,3.65,0,1.12.45,1.99,1.36,2.62.9.63,2.08,1.11,3.52,1.45,1.44.35,2.97.68,4.59,1,1.62.32,3.14.78,4.59,1.36,1.44.58,2.62,1.42,3.52,2.52.9,1.1,1.36,2.6,1.36,4.49,0,2.37-.66,4.38-1.97,6.04-1.31,1.66-3.16,2.92-5.53,3.78-2.37.86-5.11,1.29-8.21,1.29Z"/>
    <path class="cls-3" d="M1054.19,920.43l7.88-39.61h-15.45l1.1-5.62h37.42l-1.16,5.62h-15.45l-7.95,39.61h-6.4Z"/>
    <path class="cls-3" d="M1093.81,920.82c-2.89,0-5.47-.59-7.75-1.78-2.28-1.18-4.08-2.88-5.4-5.07-1.31-2.2-1.97-4.85-1.97-7.95,0-2.93.48-5.62,1.45-8.08.97-2.46,2.33-4.59,4.07-6.4,1.75-1.81,3.8-3.21,6.17-4.2,2.37-.99,4.93-1.49,7.69-1.49,2.97,0,5.49.52,7.56,1.55s3.66,2.55,4.78,4.56c1.12,2,1.68,4.45,1.68,7.33,0,4.22-.73,7.96-2.2,11.21-1.47,3.25-3.57,5.78-6.3,7.59-2.74,1.81-6,2.71-9.79,2.71ZM1095.16,915.39c2.58,0,4.89-.62,6.91-1.87,2.02-1.25,3.61-2.96,4.75-5.14,1.14-2.18,1.71-4.66,1.71-7.46,0-3.02-.88-5.37-2.65-7.08-1.77-1.7-4.29-2.55-7.56-2.55-2.54,0-4.83.61-6.85,1.84-2.03,1.23-3.62,2.93-4.78,5.11-1.16,2.18-1.74,4.69-1.74,7.53s.88,5.32,2.65,7.04c1.77,1.72,4.29,2.58,7.56,2.58ZM1105.05,920.43l1.81-8.85,2.07-7.95.84-8.14,1.81-9.31h6.2l-6.79,34.25h-5.95Z"/>
    <path class="cls-3" d="M1122.82,920.43l9.56-47.95h6.2l-9.56,47.95h-6.2ZM1129.67,911.77l1.29-7.56,22.81-18.03h8.72l-19.13,15.06-3.3,2.46-10.4,8.08ZM1149.25,920.43l-10.21-16.67,4.2-4.72,13.18,21.39h-7.17Z"/>
    <path class="cls-3" d="M1177.17,920.82c-3.36,0-6.27-.61-8.72-1.84-2.46-1.23-4.35-2.95-5.69-5.17-1.34-2.22-2-4.84-2-7.85,0-3.88.84-7.32,2.52-10.34,1.68-3.01,3.97-5.4,6.88-7.14,2.91-1.74,6.21-2.62,9.92-2.62,3.1,0,5.79.59,8.08,1.78,2.28,1.19,4.06,2.88,5.33,5.07,1.27,2.2,1.91,4.85,1.91,7.95,0,.78-.04,1.56-.13,2.36-.09.8-.19,1.54-.32,2.23h-29.66l.78-4.52h25.91l-2.52,1.55c.39-2.41.22-4.45-.52-6.11-.73-1.66-1.89-2.93-3.46-3.81-1.57-.88-3.46-1.32-5.65-1.32-2.58,0-4.86.61-6.82,1.84-1.96,1.23-3.48,2.93-4.56,5.11-1.08,2.18-1.62,4.73-1.62,7.66,0,3.1.89,5.5,2.68,7.21,1.79,1.7,4.51,2.55,8.17,2.55,2.15,0,4.16-.36,6.01-1.07,1.85-.71,3.38-1.67,4.59-2.88l2.65,4.46c-1.64,1.59-3.68,2.81-6.14,3.65-2.46.84-5,1.26-7.63,1.26Z"/>
    <path class="cls-3" d="M1224.99,920.43h-6.46l9.05-45.24h31.92l-1.1,5.62h-25.53l-7.88,39.61ZM1229.19,896.58h23.26l-1.1,5.56h-23.33l1.16-5.56Z"/>
    <path class="cls-3" d="M1258.72,920.43l9.56-47.95h6.2l-9.56,47.95h-6.2Z"/>
    <path class="cls-3" d="M1276.75,920.43l6.79-34.25h6.2l-6.79,34.25h-6.2ZM1288.52,879.59c-1.16,0-2.11-.37-2.84-1.1-.73-.73-1.1-1.62-1.1-2.65,0-1.21.41-2.23,1.23-3.07.82-.84,1.9-1.26,3.23-1.26,1.16,0,2.11.36,2.84,1.07.73.71,1.1,1.56,1.1,2.55,0,1.34-.41,2.41-1.23,3.23s-1.9,1.23-3.23,1.23Z"/>
    <path class="cls-3" d="M1307.97,933.35c-3.23,0-6.18-.42-8.85-1.26-2.67-.84-4.93-2.04-6.79-3.59l3.43-4.78c1.34,1.25,3.11,2.25,5.33,3,2.22.75,4.66,1.13,7.33,1.13,4.05,0,7.15-.92,9.31-2.75,2.15-1.83,3.6-4.62,4.33-8.37l1.62-7.95,1.94-6.4.97-6.85,1.87-9.37h5.88l-5.88,29.6c-1.25,6.2-3.55,10.68-6.91,13.44-3.36,2.76-7.88,4.14-13.57,4.14ZM1310.16,919.01c-2.97,0-5.61-.56-7.92-1.68-2.31-1.12-4.1-2.72-5.4-4.81-1.29-2.09-1.94-4.58-1.94-7.46s.48-5.29,1.45-7.59c.97-2.3,2.32-4.33,4.04-6.07,1.72-1.74,3.78-3.1,6.17-4.07,2.39-.97,5.01-1.45,7.85-1.45,2.58,0,4.94.45,7.08,1.36s3.83,2.29,5.11,4.17c1.27,1.87,1.91,4.3,1.91,7.27.04,3.79-.67,7.23-2.13,10.31-1.47,3.08-3.57,5.53-6.3,7.33-2.74,1.81-6.04,2.71-9.92,2.71ZM1311.39,913.58c2.63,0,4.94-.58,6.95-1.74,2-1.16,3.59-2.76,4.75-4.78,1.16-2.02,1.74-4.33,1.74-6.91,0-2.76-.89-4.92-2.68-6.49-1.79-1.57-4.3-2.36-7.53-2.36-2.63,0-4.94.57-6.95,1.71-2,1.14-3.59,2.73-4.75,4.75-1.16,2.03-1.74,4.33-1.74,6.91,0,2.8.9,4.99,2.71,6.56,1.81,1.57,4.31,2.36,7.5,2.36Z"/>
    <path class="cls-3" d="M1363.67,885.85c3.02,0,5.54.6,7.56,1.81,2.02,1.21,3.44,2.96,4.23,5.27.8,2.31.87,5.07.23,8.3l-3.81,19.19h-6.2l3.81-19.19c.65-3.1.34-5.51-.9-7.24-1.25-1.72-3.49-2.58-6.72-2.58s-6.07.89-8.27,2.68c-2.2,1.79-3.66,4.53-4.4,8.24l-3.62,18.09h-6.2l9.56-47.95h6.2l-4.72,23.52-1.42-2.65c1.64-2.58,3.72-4.48,6.24-5.69,2.52-1.21,5.33-1.81,8.43-1.81Z"/>
    <path class="cls-3" d="M1384.22,891.28l.97-5.11h21.91l-1.03,5.11h-21.84ZM1395.14,920.82c-2.07,0-3.85-.45-5.33-1.36-1.49-.9-2.54-2.2-3.17-3.88-.63-1.68-.72-3.66-.29-5.95l6.2-30.95h6.2l-6.2,30.83c-.3,1.85-.12,3.33.55,4.43.67,1.1,1.93,1.65,3.78,1.65.86,0,1.72-.14,2.59-.42.86-.28,1.64-.68,2.33-1.2l1.29,4.72c-1.16.82-2.45,1.38-3.85,1.68-1.4.3-2.77.45-4.1.45Z"/>
  </g>
</svg>