<?xml version="1.0" encoding="UTF-8"?>
<svg id="Capa_1" data-name="Capa 1" xmlns="http://www.w3.org/2000/svg" viewBox="0 0 841.74 476.78">
  <defs>
    <style>
      .cls-1, .cls-2, .cls-3 {
        fill: #024521;
      }

      .cls-2 {
        font-family: Montserrat-Bold, Montserrat;
        font-size: 225px;
        font-variation-settings: 'wght' 700;
        font-weight: 700;
      }

      .cls-3 {
        font-family: Montserrat-Medium, Montserrat;
        font-size: 150px;
        font-variation-settings: 'wght' 500;
        font-weight: 500;
      }
    </style>
  </defs>
  <path class="cls-1" d="M157.41,288c-.1-2.61-1.22-5.56-3.09-7.42-6.32-6.32-32.94-6.06-43.11-7.89-17.32-3.13-35.13-10.6-46.79-24.21-2.98-3.48-8.13-9.77-7.55-14.45,25.59,7.19,53.79,5.72,79.53,11.47,9.93,2.22,20.64,5.74,27.5,13.5.65-2.7-2.5-7.17-4.48-9.52-13.04-15.47-47.8-17.44-67.03-21.97-34.75-8.19-67.01-23.39-66.98-64.51,30.3,22.17,68.23,26.26,102.51,38.98,14.49,5.38,28.71,12.06,38.46,24.54,4.29,5.5,5.15,10.17,7.53,16.47.71-49.18-57.86-55.04-93.28-67.72C39.74,160.62,3.59,135.7,6.41,87l19.27,14.22c16.01,11.34,33.79,19.52,51.75,27.25,41.28,17.76,97.32,30.06,111.98,78.53,1.73.26,1.04-2.34.89-3.38-7.38-50.77-57.91-63.61-97.58-81.43C41.2,99.03-4.56,74.78.36,9.46.51,7.53,1.3.71,2.91,0c20.72,25.99,48.03,46.25,77.47,61.52,48.85,25.33,114.16,37.09,131.52,97.48,14.37,49.97-9.56,90.94-45.97,123.02-1.03.91-7.76,6.7-8.52,5.97Z"/>
  <text class="cls-2" transform="translate(231.32 246.34) scale(.84 1)"><tspan x="0" y="0">DEAM</tspan></text>
  <text class="cls-3" transform="translate(82.78 408.83) scale(1.06 1)"><tspan x="0" y="0">AIRLINES</tspan></text>
</svg>