<?xml version="1.0" encoding="UTF-8"?>
<svg id="Capa_1" data-name="Capa 1" xmlns="http://www.w3.org/2000/svg" viewBox="0 0 1930.38 606">
  <defs>
    <style>
      .cls-1 {
        fill: #fff;
      }
    </style>
  </defs>
  <path class="cls-1" d="M1,8.26C-.61,21-.25,49.72,1.9,62.82c4.85,30.51,18.67,56.36,42.9,80.77,30.33,30.69,70,53.13,157.06,88.85,76.47,31.23,109.31,55.82,127.44,95.13,5.74,12.39,11.67,32.67,11.67,39.67,0,1.79-1.97-1.08-4.13-6.46-5.03-12.21-17.95-32.13-28.36-43.8-20.46-22.98-57.08-43.08-136.24-74.67-73.59-29.26-112.9-49.9-146.65-77.36-7.18-5.92-13.64-10.59-14.18-10.59-1.97,0,.9,32.49,3.77,44.16,10.95,43.08,45.23,78.44,98.9,101.95,18.67,8.26,33.21,13.28,86.88,29.8,39.85,12.39,68.03,25.49,82.39,38.41,7.72,6.82,19.57,24.23,23.16,33.92,4.31,11.31,7.18,32.85,4.13,31.05-1.08-.72-1.97-2.87-1.97-4.85,0-6.28-7.54-19.74-16.87-29.98-19.92-21.9-45.05-33.57-115.96-54.21-71.26-20.82-85.98-26.39-114.7-43.8l-16.69-10.05,1.26,10.41c4.13,34.64,16.33,55.82,43.08,75.03,22.98,16.33,45.59,24.05,108.24,36.62,45.77,9.15,60.67,13.28,71.98,19.92,12.03,7.36,21.72,17.77,24.41,26.75l1.26,4.49-5.03-4.85c-6.64-6.1-19.92-12.74-35.36-17.41-11.85-3.59-21.9-5.03-88.31-12.74-17.77-2.15-39.85-5.21-48.82-7-11.49-2.15-16.69-2.51-16.69-1.26,0,4.13,14.9,24.59,23.69,32.49,25.85,23.16,56,33.57,111.83,38.59,11.85,1.08,24.59,2.87,28.36,3.95,8.62,2.51,17.41,10.59,17.41,15.62,0,2.15.72,3.77,1.62,3.77,2.87,0,47.03-43.62,58.16-57.62,25.85-32.13,39.67-65.52,44.52-106.8,1.44-11.67,1.44-20.82,0-32.31-5.56-45.41-22.26-80.41-52.23-109.13-27.28-26.03-58.88-43.26-148.98-81.31C121.81,101.42,69.93,66.95,25.77,22.08,13.75,9.87,3.52,0,3.16,0c-.54,0-1.44,3.77-2.15,8.26Z"/>
  <path class="cls-1" d="M815.41,318.69l3.39-11.11c2.09-5.75,5.23-14.37,7.19-19.34l3.4-8.76h72.53l2.61,6.14c1.44,3.53,4.84,12.28,7.58,19.6l4.97,13.46h42.21l-6.14-15.42c-3.4-8.36-19.86-49.79-36.72-92.13l-30.06-75.4h-39.6l-.91,2.22c-1.18,3.14-52.01,129.64-67.04,166.88-2.61,6.4-4.7,13.2-4.7,13.85M917.08,318.69,866.27,248.12c-14.9,0-24.18-.52-24.18-1.31,0-.65,4.7-13.2,10.32-27.7,5.62-14.64,11.11-29.01,12.02-32.15l1.57-5.49,6.14,16.6c3.4,9.28,8.89,23.65,12.28,32.15,3.27,8.62,6.01,16.07,6.01,16.73s-10.72,1.18-24.18,1.18Z"/>
  <path class="cls-1" d="M451.35,227.47v91.22h44.29c50.18-.65,55.15-1.44,75.02-11.76,19.86-10.19,32.93-26.14,40.12-48.74,4.05-13.07,5.1-38.03,2.09-52.93-6.53-32.93-27.57-55.54-60.9-65.47-9.15-2.74-12.81-3.01-55.15-3.53l-45.48-.52v91.74ZM490.56,168.67h13.33c7.45,0,17.64.65,22.61,1.31,26.14,3.79,48.47,25.87,48.43,52.92.74,29.04-9.75,48.1-33.01,56.86-9.02,3.4-26.27,5.49-40.38,4.97l-10.32-.39"/>
  <path class="cls-1" d="M640.84,135.73v182.95h120.23v-32.67h-81.02v-43.12h71.87v-31.36h-71.87v-41.82h81.02v-33.98"/>
  <path class="cls-1" d="M1011.78,318.69l.13-59.2c0-46.13.39-58.55,1.57-56.72.91,1.31,13.46,21.17,27.97,44.17s26.66,41.95,27.05,42.08c.65.26,28.88-43.65,49.66-77.1,3.66-5.88,6.93-10.72,7.32-10.85.39,0,.52,26.4.26,58.81l-.26,58.81h36.59v-182.95h-37.77l-21.43,34.89c-11.76,19.34-24.31,39.99-27.7,46.13s-6.4,11.24-6.53,11.5c-.26.26-2.74-4.18-5.75-9.8s-15.29-26.53-27.31-46.39l-21.82-36.33h-38.55v182.95"/>
  <path class="cls-1" d="M1880.34,174.72c-15.8,3.9-25,14.5-24.8,28.5.1,16,8.3,23.5,33.6,30.6,6.7,1.9,13.7,4.2,15.5,5.2,6.8,3.5,8.4,12.7,3.2,18.6-7.8,9-28.4,6.8-34.9-3.7-1.2-1.8-2.05-4.07-2.4-5-.19-.51-.53-1.61-1.04-1.62-1.04-.03-2.58.04-8.35.43-5.4.4-9.9.9-10,1-.7.7,3.1,11.3,5.2,14.6,3.4,5.3,10,10.6,16.4,13.2,4.8,1.9,7.6,2.2,18.6,2.2,14.7.1,20.4-1.5,28.8-7.9,12.7-9.7,13.8-31.2,2.1-41.4-5.3-4.7-10.2-6.8-24.5-10.6-14-3.8-16.1-4.6-19.8-7.9-3.4-3-4.3-6.2-3.1-10.5,2.9-11,19.8-14.8,29-6.5,2.1,1.9,4.3,4.8,5,6.5l1.04,2.49c.15.37.52.6.92.59l8.94-.37q9.6-.3,9.3-2.8c-.7-5-5.6-14.1-9.4-17.6-9-8.1-25.5-11.4-39.3-8Z"/>
  <path class="cls-1" d="M1238.94,178.52c-.5,1.3-2.5,6.3-4.4,11.3-1.9,4.9-10.2,25.9-18.4,46.5-8.3,20.6-15.3,38.4-15.7,39.5-.07,1.78-.16,1.44,9.57,1.46,12.78.03,10.73,1.14,15.93-13.26l2.63-7.14c.34-.94,1.24-1.56,2.24-1.55l18.84.18,19,.28c.97.01,1.83.62,2.17,1.52l3.53,9.3,3.53,9.31c.34.9.32,1.49,2.16,1.52h9.15c6.76-.18,10.57.46,10.27-.14-.2-.6-9.32-23.89-20.12-51.29l-19.21-48.21c-.36-.9-1.23-1.49-2.19-1.49h-8.3c-9.3,0-9.65.15-10.7,2.2ZM1263.54,237.02c-.59.91-2.8.9-14.2.9s-14.6.1-14.2-.9c7.6-18.7,14.2-36.76,14.2-38.06"/>
  <path class="cls-1" d="M1323.34,176.11l.3,50.71.2,50.69h19v-101.48"/>
  <path class="cls-1" d="M1377.84,226.92v50.4h19v-35h16.5l11,17.5,11.26,17.91,10.8.08c6.1,0,11.44.16,11.44-.04,0-.3-5.3-9.56-11.8-19.66l-11.9-18.3,4.63-3.08c4.09-2.72,7.64-6.2,10.29-10.33,1.53-2.39,2.34-4.34,3.06-7.26,1.59-6.46,1.55-13.22,0-19.69-1.28-5.32-2.88-9.68-5.99-13.23-2.51-2.86-6.42-5.29-9.95-6.7-5.88-2.35-14.07-3.76-34.31-3.65h-24.02v51.04ZM1425.54,196.32c5.7,2.5,7.7,6,7.8,13.1,0,6.2-1.6,9.4-6.9,13.3-2.4,1.8-4.5,2.1-16.2,2.4l-13.4.4v-31.7l12.2.3c9.2.3,13.4.8,16.5,2.2Z"/>
  <path class="cls-1" d="M1485.84,175.33v102.5l33.06.07h32.94v-18.68l-23.2.1-23.3.1v-84.09"/>
  <path class="cls-1" d="M1579.84,175.01v103.01h9.52l9.48-.08v-102.93"/>
  <path class="cls-1" d="M1634.74,174.78c-.3,9.6.21,103.56.61,103.36.3-.1,4.39.02,9.29.02l9.31.02-.31-35.86c-.2-19.3-.3-35-.2-35s11.5,15.7,25.5,35l26.1,35.86h18.8v-103.78l-9.54.04-9.45.04-.21,36.94-.3,35-25.5-34.4-25.5-34.5-2.19-2.78c-5-.08-16.42.04-16.42.04Z"/>
  <path class="cls-1" d="M1758.84,174.24v104.14h69v-18.07h-50v-25l21.3-.2,21.2-.3v-17l-21-.2-21-.2-.3-11.5-.3-11.6h48.85l-.08-20.36-9.36.04"/>
  <g>
    <path class="cls-1" d="M470.54,453.41l-8.93-66.5h9.31l8.27,61.27h-4.84l33.35-61.27h8.74l8.36,61.27h-4.65l33.06-61.27h9.41l-35.53,66.5h-10.07l-7.98-56.71,2.75-.1-31.16,56.81h-10.07Z"/>
    <path class="cls-1" d="M594.42,402.59c4.43,0,8.14.89,11.12,2.66,2.98,1.77,5.05,4.35,6.22,7.74,1.17,3.39,1.28,7.46.33,12.21l-5.6,28.21h-9.12l5.6-28.21c.95-4.56.51-8.11-1.33-10.64-1.84-2.53-5.13-3.8-9.88-3.8s-8.93,1.31-12.16,3.94c-3.23,2.63-5.38,6.67-6.46,12.11l-5.32,26.6h-9.12l14.06-70.49h9.12l-6.93,34.58-2.09-3.9c2.41-3.8,5.46-6.59,9.17-8.36,3.71-1.77,7.84-2.66,12.4-2.66Z"/>
    <path class="cls-1" d="M647.43,453.98c-4.94,0-9.21-.9-12.83-2.71-3.61-1.8-6.4-4.34-8.36-7.6-1.96-3.26-2.94-7.11-2.94-11.54,0-5.7,1.23-10.77,3.71-15.2,2.47-4.43,5.84-7.93,10.12-10.5,4.27-2.56,9.13-3.85,14.58-3.85,4.56,0,8.52.87,11.88,2.61,3.36,1.74,5.97,4.23,7.84,7.46,1.87,3.23,2.8,7.12,2.8,11.69,0,1.14-.06,2.3-.19,3.47-.13,1.17-.29,2.27-.47,3.28h-43.61l1.14-6.65h38.09l-3.71,2.28c.57-3.55.32-6.54-.76-8.98-1.08-2.44-2.77-4.31-5.08-5.6-2.31-1.3-5.08-1.95-8.31-1.95-3.8,0-7.14.9-10.02,2.71-2.88,1.81-5.12,4.31-6.7,7.5-1.58,3.2-2.38,6.95-2.38,11.26,0,4.56,1.31,8.09,3.94,10.59,2.63,2.5,6.63,3.75,12.02,3.75,3.17,0,6.11-.52,8.83-1.57,2.72-1.04,4.97-2.45,6.75-4.23l3.89,6.56c-2.41,2.34-5.42,4.13-9.02,5.37-3.61,1.24-7.35,1.85-11.21,1.85Z"/>
    <path class="cls-1" d="M681.44,453.41l9.97-50.35h8.74l-2.85,14.63-.95-3.61c2.34-4.24,5.32-7.22,8.93-8.93,3.61-1.71,8.08-2.57,13.4-2.57l-1.71,8.83c-.38-.06-.76-.09-1.14-.09h-1.23c-5,0-9.14,1.36-12.4,4.08-3.26,2.72-5.46,7-6.6,12.83l-5.04,25.17h-9.12Z"/>
    <path class="cls-1" d="M743.29,453.98c-4.94,0-9.21-.9-12.83-2.71-3.61-1.8-6.4-4.34-8.36-7.6-1.96-3.26-2.94-7.11-2.94-11.54,0-5.7,1.23-10.77,3.71-15.2,2.47-4.43,5.84-7.93,10.12-10.5,4.27-2.56,9.13-3.85,14.58-3.85,4.56,0,8.52.87,11.88,2.61,3.36,1.74,5.97,4.23,7.84,7.46,1.87,3.23,2.8,7.12,2.8,11.69,0,1.14-.06,2.3-.19,3.47-.13,1.17-.29,2.27-.47,3.28h-43.61l1.14-6.65h38.09l-3.71,2.28c.57-3.55.32-6.54-.76-8.98-1.08-2.44-2.77-4.31-5.08-5.6-2.31-1.3-5.08-1.95-8.31-1.95-3.8,0-7.14.9-10.02,2.71-2.88,1.81-5.12,4.31-6.7,7.5-1.58,3.2-2.38,6.95-2.38,11.26,0,4.56,1.31,8.09,3.94,10.59,2.63,2.5,6.63,3.75,12.02,3.75,3.17,0,6.11-.52,8.83-1.57,2.72-1.04,4.97-2.45,6.75-4.23l3.89,6.56c-2.41,2.34-5.42,4.13-9.02,5.37-3.61,1.24-7.35,1.85-11.21,1.85Z"/>
    <path class="cls-1" d="M804.09,453.41l13.3-66.5h26.03c6.71,0,12.45,1.12,17.2,3.37,4.75,2.25,8.38,5.4,10.88,9.45,2.5,4.05,3.75,8.87,3.75,14.44s-.98,11.16-2.94,16.01c-1.96,4.85-4.77,8.99-8.41,12.44-3.64,3.45-8,6.11-13.06,7.98-5.07,1.87-10.73,2.8-17,2.8h-29.73ZM815.2,445.15h18.91c6.59,0,12.22-1.31,16.91-3.94,4.69-2.63,8.3-6.24,10.83-10.83,2.53-4.59,3.8-9.8,3.8-15.63,0-3.99-.86-7.46-2.57-10.4-1.71-2.95-4.29-5.21-7.74-6.79-3.45-1.58-7.74-2.38-12.87-2.38h-17.29l-9.98,49.97Z"/>
    <path class="cls-1" d="M881.32,453.41l9.97-50.35h8.74l-2.85,14.63-.95-3.61c2.34-4.24,5.32-7.22,8.93-8.93,3.61-1.71,8.08-2.57,13.4-2.57l-1.71,8.83c-.38-.06-.76-.09-1.14-.09h-1.23c-5,0-9.14,1.36-12.4,4.08-3.26,2.72-5.46,7-6.6,12.83l-5.04,25.17h-9.12Z"/>
    <path class="cls-1" d="M943.17,453.98c-4.94,0-9.21-.9-12.83-2.71-3.61-1.8-6.4-4.34-8.36-7.6-1.96-3.26-2.94-7.11-2.94-11.54,0-5.7,1.23-10.77,3.71-15.2,2.47-4.43,5.84-7.93,10.12-10.5,4.27-2.56,9.13-3.85,14.58-3.85,4.56,0,8.52.87,11.88,2.61,3.36,1.74,5.97,4.23,7.84,7.46,1.87,3.23,2.8,7.12,2.8,11.69,0,1.14-.06,2.3-.19,3.47-.13,1.17-.29,2.27-.47,3.28h-43.61l1.14-6.65h38.09l-3.71,2.28c.57-3.55.32-6.54-.76-8.98-1.08-2.44-2.77-4.31-5.08-5.6-2.31-1.3-5.08-1.95-8.31-1.95-3.8,0-7.14.9-10.02,2.71-2.88,1.81-5.12,4.31-6.7,7.5-1.58,3.2-2.38,6.95-2.38,11.26,0,4.56,1.31,8.09,3.94,10.59,2.63,2.5,6.63,3.75,12.02,3.75,3.17,0,6.11-.52,8.83-1.57,2.72-1.04,4.97-2.45,6.75-4.23l3.89,6.56c-2.41,2.34-5.42,4.13-9.02,5.37-3.61,1.24-7.35,1.85-11.21,1.85Z"/>
    <path class="cls-1" d="M999.31,453.98c-4.24,0-8.04-.87-11.4-2.61-3.36-1.74-6-4.23-7.93-7.46-1.93-3.23-2.9-7.12-2.9-11.69,0-4.31.71-8.27,2.14-11.88,1.43-3.61,3.42-6.75,5.99-9.4,2.57-2.66,5.59-4.72,9.07-6.18,3.48-1.46,7.25-2.19,11.31-2.19,4.37,0,8.07.76,11.11,2.28s5.38,3.75,7.03,6.7c1.65,2.95,2.47,6.54,2.47,10.78,0,6.21-1.08,11.7-3.23,16.48-2.15,4.78-5.24,8.5-9.26,11.16-4.02,2.66-8.82,3.99-14.39,3.99ZM1001.31,446c3.8,0,7.19-.92,10.17-2.75,2.98-1.84,5.3-4.35,6.98-7.55,1.68-3.2,2.52-6.85,2.52-10.97,0-4.43-1.3-7.9-3.89-10.4-2.6-2.5-6.3-3.75-11.12-3.75-3.74,0-7.09.9-10.07,2.71-2.98,1.81-5.32,4.31-7.03,7.51-1.71,3.2-2.56,6.89-2.56,11.07s1.3,7.82,3.89,10.35c2.6,2.53,6.3,3.8,11.12,3.8ZM1015.84,453.41l2.66-13.02,3.04-11.69,1.23-11.97,2.66-13.68h9.12l-9.97,50.35h-8.74Z"/>
    <path class="cls-1" d="M1113.59,402.59c4.5,0,8.2.89,11.12,2.66,2.91,1.77,4.96,4.35,6.13,7.74,1.17,3.39,1.25,7.46.24,12.21l-5.61,28.21h-9.12l5.61-28.21c.95-4.56.55-8.11-1.19-10.64-1.74-2.53-4.89-3.8-9.45-3.8s-8.46,1.3-11.5,3.9c-3.04,2.6-5.1,6.55-6.17,11.88l-5.42,26.88h-9.12l5.7-28.21c.89-4.56.46-8.11-1.28-10.64-1.74-2.53-4.89-3.8-9.45-3.8s-8.46,1.31-11.5,3.94c-3.04,2.63-5.1,6.67-6.18,12.11l-5.32,26.6h-9.12l9.97-50.35h8.74l-2.85,14.44-1.71-3.9c2.34-3.8,5.3-6.59,8.88-8.36,3.58-1.77,7.55-2.66,11.92-2.66,3.42,0,6.4.57,8.93,1.71,2.53,1.14,4.54,2.84,6.03,5.08,1.49,2.25,2.36,4.96,2.61,8.12l-4.94-.95c2.6-4.69,5.94-8.19,10.02-10.5,4.08-2.31,8.75-3.47,14.01-3.47Z"/>
    <path class="cls-1" d="M1158.24,453.98c-4.24,0-8.25-.56-12.02-1.66-3.77-1.11-6.67-2.48-8.69-4.13l4.08-7.22c1.96,1.52,4.51,2.75,7.65,3.7,3.13.95,6.41,1.43,9.83,1.43,4.37,0,7.66-.67,9.88-2,2.22-1.33,3.33-3.13,3.33-5.42,0-1.65-.67-2.9-2-3.75s-3.06-1.52-5.18-2c-2.12-.47-4.39-.95-6.79-1.42-2.41-.48-4.66-1.15-6.75-2.04-2.09-.89-3.82-2.17-5.18-3.85-1.36-1.68-2.04-3.91-2.04-6.7,0-3.36.95-6.25,2.85-8.69,1.9-2.44,4.56-4.32,7.98-5.65s7.41-2,11.97-2c3.29,0,6.54.4,9.74,1.19,3.2.79,5.81,1.92,7.84,3.37l-3.61,7.22c-2.09-1.46-4.43-2.48-7.03-3.09-2.6-.6-5.19-.9-7.79-.9-4.24,0-7.44.71-9.59,2.14-2.15,1.42-3.23,3.22-3.23,5.37,0,1.65.67,2.93,2,3.85,1.33.92,3.05,1.63,5.18,2.14,2.12.51,4.37,1,6.75,1.47,2.38.47,4.62,1.14,6.75,1.99,2.12.85,3.85,2.09,5.18,3.71,1.33,1.62,2,3.82,2,6.6,0,3.48-.97,6.45-2.9,8.88-1.93,2.44-4.64,4.29-8.12,5.56-3.48,1.27-7.5,1.9-12.06,1.9Z"/>
    <path class="cls-1" d="M1229.97,453.41l11.59-58.23h-22.71l1.61-8.27h55.01l-1.71,8.27h-22.71l-11.69,58.23h-9.41Z"/>
    <path class="cls-1" d="M1288.2,453.98c-4.24,0-8.04-.87-11.4-2.61-3.36-1.74-6-4.23-7.93-7.46-1.93-3.23-2.9-7.12-2.9-11.69,0-4.31.71-8.27,2.14-11.88,1.43-3.61,3.42-6.75,5.99-9.4,2.57-2.66,5.59-4.72,9.07-6.18,3.48-1.46,7.25-2.19,11.31-2.19,4.37,0,8.07.76,11.11,2.28s5.38,3.75,7.03,6.7c1.65,2.95,2.47,6.54,2.47,10.78,0,6.21-1.08,11.7-3.23,16.48-2.15,4.78-5.24,8.5-9.26,11.16-4.02,2.66-8.82,3.99-14.39,3.99ZM1290.2,446c3.8,0,7.19-.92,10.17-2.75,2.98-1.84,5.3-4.35,6.98-7.55,1.68-3.2,2.52-6.85,2.52-10.97,0-4.43-1.3-7.9-3.89-10.4-2.6-2.5-6.3-3.75-11.12-3.75-3.74,0-7.09.9-10.07,2.71-2.98,1.81-5.32,4.31-7.03,7.51-1.71,3.2-2.56,6.89-2.56,11.07s1.3,7.82,3.89,10.35c2.6,2.53,6.3,3.8,11.12,3.8ZM1304.73,453.41l2.66-13.02,3.04-11.69,1.23-11.97,2.66-13.68h9.12l-9.97,50.35h-8.74Z"/>
    <path class="cls-1" d="M1330.86,453.41l14.06-70.49h9.12l-14.06,70.49h-9.12ZM1340.93,440.68l1.9-11.12,33.54-26.5h12.83l-28.12,22.14-4.84,3.61-15.29,11.88ZM1369.71,453.41l-15.01-24.51,6.17-6.94,19.38,31.44h-10.55Z"/>
    <path class="cls-1" d="M1410.75,453.98c-4.94,0-9.21-.9-12.83-2.71-3.61-1.8-6.4-4.34-8.36-7.6-1.96-3.26-2.94-7.11-2.94-11.54,0-5.7,1.23-10.77,3.71-15.2,2.47-4.43,5.84-7.93,10.12-10.5,4.27-2.56,9.13-3.85,14.58-3.85,4.56,0,8.52.87,11.88,2.61,3.36,1.74,5.97,4.23,7.84,7.46,1.87,3.23,2.8,7.12,2.8,11.69,0,1.14-.06,2.3-.19,3.47-.13,1.17-.29,2.27-.47,3.28h-43.61l1.14-6.65h38.09l-3.71,2.28c.57-3.55.32-6.54-.76-8.98-1.08-2.44-2.77-4.31-5.08-5.6-2.31-1.3-5.08-1.95-8.31-1.95-3.8,0-7.14.9-10.02,2.71-2.88,1.81-5.12,4.31-6.7,7.5-1.58,3.2-2.38,6.95-2.38,11.26,0,4.56,1.31,8.09,3.94,10.59,2.63,2.5,6.63,3.75,12.02,3.75,3.17,0,6.11-.52,8.83-1.57,2.72-1.04,4.97-2.45,6.75-4.23l3.89,6.56c-2.41,2.34-5.42,4.13-9.02,5.37-3.61,1.24-7.35,1.85-11.21,1.85Z"/>
    <path class="cls-1" d="M1481.05,453.41h-9.5l13.3-66.5h46.93l-1.62,8.27h-37.52l-11.59,58.23ZM1487.23,418.36h34.2l-1.62,8.17h-34.29l1.71-8.17Z"/>
    <path class="cls-1" d="M1530.64,453.41l14.06-70.49h9.12l-14.06,70.49h-9.12Z"/>
    <path class="cls-1" d="M1557.14,453.41l9.97-50.35h9.12l-9.97,50.35h-9.12ZM1574.43,393.37c-1.71,0-3.1-.54-4.18-1.61-1.08-1.08-1.62-2.38-1.62-3.9,0-1.77.6-3.28,1.8-4.51,1.2-1.23,2.79-1.85,4.75-1.85,1.71,0,3.1.52,4.18,1.57,1.08,1.04,1.62,2.3,1.62,3.75,0,1.96-.6,3.55-1.8,4.75s-2.79,1.81-4.75,1.81Z"/>
    <path class="cls-1" d="M1603.03,472.41c-4.75,0-9.09-.62-13.01-1.85-3.93-1.24-7.25-2.99-9.98-5.27l5.04-7.03c1.96,1.84,4.58,3.31,7.84,4.42,3.26,1.11,6.85,1.66,10.78,1.66,5.95,0,10.51-1.35,13.68-4.04,3.17-2.69,5.29-6.79,6.37-12.3l2.38-11.69,2.85-9.4,1.43-10.07,2.75-13.77h8.64l-8.64,43.51c-1.84,9.12-5.23,15.71-10.17,19.76-4.94,4.05-11.59,6.08-19.95,6.08ZM1606.26,451.32c-4.37,0-8.25-.82-11.64-2.47-3.39-1.65-6.03-4-7.93-7.08-1.9-3.07-2.85-6.73-2.85-10.97s.71-7.77,2.14-11.16c1.42-3.39,3.4-6.37,5.94-8.93,2.53-2.56,5.56-4.56,9.07-5.98,3.51-1.42,7.36-2.14,11.54-2.14,3.8,0,7.27.67,10.4,2s5.64,3.37,7.5,6.13c1.87,2.76,2.8,6.32,2.8,10.69.06,5.57-.98,10.63-3.13,15.15-2.15,4.53-5.24,8.12-9.26,10.78-4.02,2.66-8.88,3.99-14.58,3.99ZM1608.06,443.34c3.86,0,7.27-.85,10.21-2.56,2.95-1.71,5.27-4.05,6.98-7.03,1.71-2.98,2.56-6.36,2.56-10.17,0-4.05-1.32-7.23-3.94-9.55-2.63-2.31-6.32-3.47-11.07-3.47-3.86,0-7.27.84-10.21,2.52-2.94,1.68-5.27,4.01-6.98,6.98-1.71,2.98-2.56,6.37-2.56,10.17,0,4.12,1.33,7.33,3.99,9.64,2.66,2.31,6.33,3.47,11.02,3.47Z"/>
    <path class="cls-1" d="M1684.92,402.59c4.43,0,8.14.89,11.12,2.66,2.98,1.77,5.05,4.35,6.22,7.74,1.17,3.39,1.28,7.46.33,12.21l-5.6,28.21h-9.12l5.6-28.21c.95-4.56.51-8.11-1.33-10.64-1.84-2.53-5.13-3.8-9.88-3.8s-8.93,1.31-12.16,3.94c-3.23,2.63-5.38,6.67-6.46,12.11l-5.32,26.6h-9.12l14.06-70.49h9.12l-6.93,34.58-2.09-3.9c2.41-3.8,5.46-6.59,9.17-8.36,3.71-1.77,7.84-2.66,12.4-2.66Z"/>
    <path class="cls-1" d="M1715.13,410.57l1.42-7.5h32.21l-1.52,7.5h-32.11ZM1731.18,453.98c-3.04,0-5.65-.67-7.84-1.99-2.18-1.33-3.74-3.23-4.65-5.7-.92-2.47-1.06-5.38-.43-8.74l9.12-45.5h9.12l-9.12,45.31c-.44,2.72-.18,4.89.81,6.51.98,1.61,2.83,2.42,5.56,2.42,1.27,0,2.53-.21,3.8-.62,1.27-.41,2.41-1,3.42-1.76l1.9,6.94c-1.71,1.2-3.59,2.03-5.65,2.47-2.06.44-4.07.67-6.03.67Z"/>
  </g>
</svg>