<?xml version="1.0" encoding="UTF-8"?>
<svg id="Capa_1" data-name="Capa 1" xmlns="http://www.w3.org/2000/svg" viewBox="0 0 101.47 96.91">
  <defs>
    <style>
      .cls-1 {
        fill: #00542c;
      }

      .cls-2 {
        fill: #d160c2;
      }

      .cls-3 {
        fill: #23b56f;
      }

      .cls-4 {
        fill: #004225;
      }

      .cls-5 {
        fill: #2ecc71;
      }

      .cls-6 {
        fill: #c865c7;
      }

      .cls-7 {
        fill: #00773e;
      }

      .cls-8 {
        fill: #189b5c;
      }

      .cls-9 {
        fill: #006032;
      }
    </style>
  </defs>
  <path class="cls-5" d="M80.68,22.08c0,.39-.23.38-.72-.04-1.58.13-3.14.05-4.67-.25-3.32.41-6.6.64-9.95.12-1.54.3-2.74.42-4.29.02-1.55.44-3.2.51-4.95.23-.59.37-1.01.25-1.59-.05-2.01.52-4.11.68-6.28.46-1.32.39-2.61.44-3.87.16-1.98.64-3.87.71-5.66.2-.36.37-.66.42-1.13.28-.68.5-1.09.45-1.84.12-2.84.07-5.68.23-8.51.48-.34.26-.59.26-.75,0,1.05-9.05,7.17-17.28,15.36-21.12,16.28-7.63,35.47,1.74,38.86,19.4Z"/>
  <path class="cls-4" d="M80.52,33.33c-.19,3.88-4.32,10.3-7.03,13.05-14.46,14.69-39.83,8.79-45.94-10.86-.08-.7.27-.61.78-.37.54.5,1.11.57,1.72.2,1.32.22,2.49.09,3.51-.38,1.59-.07,3.18-.11,4.77-.1,1.39-.56,2.63-.46,4.08-.31,3.47-.34,6.98-.44,10.54-.3,1.09-.71,1.88-.79,2.35-.26,1.23-.43,1.89-.54,3.17-.17,3.73-.63,7.44-.74,11.15-.32l2.22-.42c1.91.27,3.78.38,5.63.32.37.73,2.1.5,2.5-.22.24-1.04.82-.79.54.15Z"/>
  <path class="cls-4" d="M101.46,88.33c.12,4.15-2.6,7.47-6.66,8.26-21.11.03-42.23.02-63.34.02-.56-.14-1.16-.13-1.72,0-.78,0-1.56,0-2.34,0-4.75,0-9.54-.05-14.38-.16-3.76-.24-6.55-3.54-6.88-7.19.05-.7.1-1.38.16-2.03-.13-.39-.16-.86,0-1.25.39-.14.55.18.5.95l-.07,1.39c2.35.02,4.71-.06,7.1-.23l1.44.39c.72-.28,1.46-.48,2.21-.6,2.8.41,5.59.55,8.36.42.79-.51,1.44-.64,2.2,0,14.02-.35,28.16-.46,42.23-.43,3.21.22,6.4.21,9.57-.03,3.14.36,6.3.46,9.47.3.68.35,1.31.35,1.87.02,1.17.19,2.28.14,3.33-.13.82.34,1.7.33,2.65-.02,1.25.22,2.47.19,3.65-.09l.33.25c-.52-.15-.48-2.1,0-2.34l.12-.19c.1.88.16,1.78.19,2.69Z"/>
  <path class="cls-9" d="M8.02,77.7c.18-.12.37-.09.57.09.48-.81.76-1.24,1.8-.86.46-.39,1.06-.51,1.8-.35,1.27-.56,2.48-.67,3.64-.35.82-.52,1.58-.6,2.3-.24.78-.28,1.29-.18,1.53.31.86-.59,1.49-.56,2.43-.19,1.55-.08,3.1-.18,4.66-.31.67.3,1.34.36,2.01.18.31.57.86.59,1.64.07,1.01.21,1.93.08,2.74-.39,1.83.2,3.65.36,5.48.48.83-.31,1.66-.62,2.48-.94l.59.06c1.37.64,2.19.65,3.57,0,.44-.14.73-.09,1.03.23.69-.3,1.26-.3,1.72.02.4-.36.95-.33,1.66.08,1.93-.13,3.87-.17,5.81-.11,1.09-.79,1.86-.83,2.29-.11.79-.72,1.84-.28,2.63.23,1.32-.92,2.25-.87,2.78.14l.26.07c.84-.67,1.57-.68,2.19-.02.66-.3,1.42-.4,2.27-.3.55-.5,1.11-.45,1.68.15.96-.38,1.68-.33,2.17.14,1.58-.32,3.27-.26,5.07.18.51-.2.85-.19,1.15.32.71-.32,1.53-.27,2.46.15,1.19-.52,1.74-.5,2.96.02l1.67-.25c3.72.13,7.45.19,11.18.17.85.52,1.7.62,2.56.31l.29.22c.98,2.34,1.9,4.76,2.03,7.34-.76.56-1.72.76-2.89.6-9.13-.29-18.2-.48-27.22-.57-3.04-.25-6.08-.31-9.12-.19-.48.3-1.1.3-1.86,0l-2.06.34c-.38,0-.72-.11-.84-.48-4.32.45-8.74.74-13.12.3-1.05.25-1.99.21-2.8-.14-1.16.74-2.06.78-2.7.14-1.7.36-3.46.36-5.29-.01-1.23.55-2.41.68-3.8.54-2.04-.32-4.01-.3-5.91.05l-1.53-.35c-1.45.18-2.86.29-4.32.11-1.28.46-2.33.35-3.16-.34-.74.6-1.49.51-2.35.4l-3.89.3c-1.22,0-2-.02-1.6-1.39,0-.03.01.49-.22.39.3-2.11.8-4.26,1.56-6.25Z"/>
  <path class="cls-7" d="M14.11,68.17c.51-.53.94-.38,1.31.44.42-.35.96-.52,1.62-.5l2.97.21c3.87-.43,7.76-.54,11.7-.34,1.56-.12,3.08-.18,4.57-.17.37-.34.77-.45,1.18-.33.47-.61,1.95-.69,2.03.25.82-.34,1.55-.34,2.18,0-.13-1.18.48-1.24,1.82-.17l1.51-.17c.63.31,1.31.32,2.03.01,1.2.71,2.99.71,4.18,0,.53.28,1.01.26,1.45-.07l.49.11c.33-.4.75-.52,1.1-.09.53-.59,2.03-.57,2.51.04.77-.32,1.71-.54,2.33.14l.31-.24c1.03.12,2.05.1,3.07-.05.58.34,1.14.49,1.68.44.56-.44,1.2-.78,1.61.02.9-.87,1.63-.99,2.18-.37.63-.72,1.83-.5,2.45.15.31-.18.47-.25.85-.18.62.64.86.42,1.44-.09.45.24.83.16,1.16-.25.43.24.87.39,1.32.47.23-.54.47-.86,1.06-.55,1.2,1.21,2.06,1.01,3.55.52,1.99.68,3.69.54,5.74.15.95-.21,1.78-.06,2.48.45,1.11-.32,2.08-.21,2.9.31l1.34-.21c0-.31.05-.61.14-.9,3.32,2.95,5,5.57,6.72,9.69-.32.14-1.17.33-1.48.31-.48-.03-1.35-.62-1.88-.63-1.74-.02-3.47.19-5.3.14s-4.04-.45-5.68-.17c-.35.06-1.08.2-1.38.2-.56,0-1.02-.47-1.57-.47-.43,0-.75.43-1.24.45-.62.03-1.37-.43-1.7-.45-.31-.02-.77.37-1.08.31-.16-.03-.14-.41-.35-.47-.19-.05-.44.14-.62.13-1.15-.12-2.32-.24-3.44-.44-.72-.13-1.55.31-1.69.28-.2-.04-.3-.41-.63-.43-.39-.03-1.12.33-1.54.27-.37-.06-.68-.55-.81-.56-.18-.01-.45.36-.66.4-.31.06-1.45.02-1.85.05-.24.02-.39.28-.59.27-.31-.02-.66-.58-1.1-.56-.41.01-.42.64-1.11.59-.83-.07-.88-.94-.95-.94-.75,0-1.87.73-2.03.73-.36,0-.96-.78-2.03-.57-.48.09-.54.63-1.02.62.44-1.74-1.4-.28-1.84-.18-.75.17-2.34-.1-3.05-.09s-1.67.33-2.53.27c-.53-.04-1.33-.5-1.56-.48-.09,0-.08.31-.18.33-.43.09-.67-.31-.92-.32-.22,0-.43.22-.67.27-.72.14-.69-.27-.76-.28-.57-.07-1.58.49-2.06.59-1.03.21-1.9-.71-2.89-.56-.27.04-.46.34-.69.41-.86.23-.49-.09-1.29.42-.65.42-4.69-.48-5.86-.39-.29.02-.5.36-.82.44-.64.15-1.33-.1-1.85-.05-.42.04-.94.68-1.48.32-.11-.08-.11-.38-.25-.4-.2-.03-.56.2-.9.17-.29-.03-.56-.29-.95-.32-1.23-.11-3.22.38-4.54.33-.61-.03-1.01-.33-1.4-.33-.5,0-.93.49-1.26.48-.37-.01-.31-.46-.48-.49-.2-.03-.68.21-1.07.18-.36-.02-.69-.32-.92-.3-.31.03-.89.6-1.62.55-.26-.02-.4-.27-.74-.28-.88-.03-1.91.53-2.68.62-.42.05-.87-.12-1.09-.08-.18.03-.3.37-.62.41s-.64-.2-.9-.14c-.5.12-.58,1.72-1.51.6,1.34-3.52,3.5-6.83,6.09-9.53Z"/>
  <path class="cls-5" d="M14.11,68.17c4.89-5.1,11.71-8.21,18.82-8.6,14.27-.77,29.53.45,43.77.18.46.01,1.32.45,1.41.46.16,0,.4-.2.6-.18.1.01.09.33.18.33.16,0,.39-.2.6-.18.1,0,.07.29.2.32,2.27.58,3.39.82,5.48,1.67,2.45,1,5.22,3.27,7.22,5.05.41.36.12.79.15,1.25-.55-.15-1.18.17-1.65.17s-.54-.4-.93-.48c-.72-.14-1.48.25-2.02.16-.35-.06-.42-.41-.94-.48-.34-.05-.88,0-1.25.02-.97.07-2.67.41-3.58.41-.66,0-1.88-.53-2.4-.54-.3,0-1.35.47-1.98.43-.87-.06-1.54-1.14-2.05-1.08-.22.02-.16.58-.33.63-.84.24-1.46-.48-1.55-.48-.11,0-.48.78-.62.78-.13,0-.18-.43-.32-.47-.44-.13-.34.27-.57.37-.94.39-1-.28-1.32-.34-.24-.04-.43.28-.69.22-.42-.09-.39-.57-1.31-.57-1.08,0-.72.44-1.1.64-.35.18-.16-.52-.48-.61-.73-.19-1.27.76-1.72.77-.37,0-.19-.45-.61-.49s-.56.44-1.09.49c-.94.1-1.17-.48-1.72-.49-.31,0-.69.18-1.1.18-.35,0-1.48-.2-1.71-.15-.26.06-.15.59-.48.44-.14-.07-.14-.36-.36-.46-.99-.48-1.72.25-2.12.16-.15-.03-.14-.33-.25-.4-.06-.04-1.34-.06-1.47-.04-.24.05-.44.43-.65.58-.47-.97-.64-.24-1.02-.07-.16.07-.28-.21-.47-.18-.21.04-.49.36-.72.37s-.4-.32-.74-.29c-.28.02-.51.38-.83.45-.16.04-2.24.05-2.45.03-.34-.04-.56-.43-.96-.47-.51-.05-.77.3-1.08.3-.26,0-.56-.29-.94-.32-.52-.04-1,.26-1.55.16-.51-.09-.85-.7-1.26-.78-.57-.11.14.83-.32.94-.42.1-.61-.25-.9-.27-.39-.02-1.27.37-1.58.26s-.2-.52-.27-.59c-.07-.06-1.08-.06-1.2.01-.09.05-.09.37-.27.41-.13.03-.37-.15-.58-.1-.43.08-.48.58-1.41.41-1-.19-.46-.04-1.14.02-3.63.32-7.08-.04-10.62.09-1.31.05-2.65.35-3.74.38-1.38.04-2.66-.5-4.34.02-.17.05-.06.35-.35.31-.37-.05-.62-.6-.71-.94l-.62.16Z"/>
  <path class="cls-1" d="M6.46,83.95c.03-.11.15-.51.31-.47.01.64-.2,1.01.54,1.1,1.57.19,3.33-.17,4.85-.24.37-.02.81.14,1.26.08.52-.06.85-.47,1.09-.47.34,0,.7.58,1.1.62.76.07,1.69-.43,2.77-.27,1.8.26,2.09-.08,3.63-.13.32-.01,1.1.37,1.59.35.37-.01.67-.24,1.07-.27,2.28-.14,4.84.45,7.19.17.56-.07.8-.47,1.24-.49,1.11-.05,2.58.33,3.6.34.55,0,1.7-.39,2.01-.34.17.03.05.48.64.49.64,0,1.65-.64,1.88-.63.21,0,.39.28.64.31.54.08,1.6-.19,2.17-.17,2.92.1,5.02.49,7.97.1,1.31-.17,2.45-.08,3.76-.23.26-.03,1.46-.19,1.53-.18.15.02.14.32.25.4.5.33,2-.3,2.75-.25.46.03.76.33.93.33.21,0,.39-.29.63-.31,3.79-.39,7.75.38,11.55.15,1.64-.1,1.86,0,3.44.17.81.09,2.34-.11,3.28-.02,2.17.22,4.15-.14,6.08.06,2.88.3,4.95.24,7.68.26,1.81.02,4.03.2,5.76.09.86-.05,1.32-.12,1.28-1.04,0,.27.18.56.23.78.31,1.3.36,2.69.31,4.06,0-.02-.15-.18-.16-.38-.03-.52.03-1.05,0-1.58,0-.19.12-.58-.16-.55v2.34c-.57.1-1.21.29-1.79.32-.79.04-1.5-.19-2.19-.17-.54.02-1.2.36-1.73.33-.39-.02-.65-.31-.93-.31-.3,0-.6.27-.94.27-.62.02-1.77-.2-2.35-.15-.36.03-.56.31-.79.33-.33.03-.51-.28-.78-.32-1.07-.15-2.9.08-4.05,0s-1.62.03-2.66,0c-1.26-.03-2.36-.45-3.75-.33-1.26.11-2.71.24-4.06.17-4.5-.22-9.65-.27-14.38-.15-3.74.09-7.45.15-11.25.14-1.67,0-3.29-.19-4.83-.14-5.09.17-10.05.37-15.17.47-.23,0-1.39-.03-1.54-.06-.25-.04-.44-.43-.96-.43-.49,0-.79.4-1.13.45-.91.12-3.43.04-4.46,0-1.11-.05-2.83-.38-3.93-.41-.71-.02-1.68.56-2.2.6-.44.03-1.01-.38-1.46-.39-.83-.02-2.12.27-3.18.2-.92-.06-.82.01-1.6.05s-1.89-.34-2.57.14c-.18-.25.25-2.37-.16-2.81-.07-.08-.07-.18,0-.31.03-.58,0-1.15.16-1.72Z"/>
  <path class="cls-8" d="M80.52,33.33c0-.16.11-.66-.15-.62.12.68-.59,1.3-1.21,1.37-.15.02-1.43.04-1.51.02-.21-.07-.2-.42-.36-.46-.33-.08-.73.17-1.06.17-1.37-.04-3.1-.36-4.37-.41-.46-.02-1.71.45-2.34.42-1.58-.07-3.15-.39-4.85-.33-2.04.07-4.63.69-6.56.65-.5,0-.74-.35-1.07-.33-.43.02-1.07.51-1.74.49-.3,0-.26-.46-.62-.43-.29.02-1.2.68-1.71.71-2.66.13-5.49-.16-8.13.05-1.83.15-1.97.41-3.92.13-1.15-.16-1.8.34-2.52.43-1.53.2-3.14-.15-4.62.06-.28.04-.55.35-.86.41-.9.19-2.06-.09-2.93.02-.33.04-.58.31-.75.3-.17-.01-.88-.52-1.25-.63-.35-.1-.15-.21-.41.19-.63-2.02-1.24-5.09-1.25-7.19.07-.76.12-1.52.13-2.3.25-.06.47-.03.49.22v1.7s.98.37.98.37c4.77-.22,9.59-.32,14.45-.29.76.26.92.29,1.63-.12,2.12.09,4.23.07,6.32-.04.81.28,1.46.2,1.95-.25,1.79-.33,3.58-.39,5.37-.21,1.8-.22,3.6-.41,5.4-.13l1.64-.48c3.09.54,6.55.43,9.62-.18,1.26.19,2.53.3,3.8.33,2.39-.25,2.46-.6,2.55-2.81l.37-.15c.09.7.28,1.53.31,2.27.11,2.32-.15,4.87-.78,7.11Z"/>
  <path class="cls-3" d="M26.46,23.8c.27-.02.45-.26.71-.3.96-.16,1.8-.02,2.82-.15,1.52-.2,4.32-.49,5.77-.33.36.04.69.3.91.28.25-.02.54-.35.84-.4.22-.04.44.15.66.05.14-.06.27-.36.39-.36.2,0,1.62.44,1.87.45,1.37.02,2.67-.54,3.9-.62.32-.02.89.23,1.29.24.82.01,1.96-.41,2.79-.41,1.31,0,3.18.13,4.5-.03.44-.06,1.12-.44,1.61-.42.29.01.51.28.78.29.33.02.55-.24.76-.24,1.33-.02,2.65.29,4.08.09.35-.05.55-.3.78-.32.53-.05,1.72.32,2.34.32.53,0,.99-.28,1.57-.33,1.21-.11,3.11.35,4.36.33,1.07-.02,3.82-.17,4.84-.33,1.99-.3,1.39,0,2.97.17.97.11,2.16-.23,3.26,0,.13.03.11.42.42.31.13.68.22,1.17.31,1.88-.28.75-.01,2.02-.55,2.65-.17.2-1.98.59-2.34.62-1.33.11-2.58-.27-3.74-.33-.6-.03-.99.3-1.42.32-2.09.09-4.6.26-6.69.15-.47-.03-1.15-.32-1.57-.29-.67.04-1.08.63-2.19.45-1.96-.31-3.06.03-4.86.16-.47.03-1.19-.2-1.87-.15-.57.04-3.1.26-3.41.33-.18.04-.29.31-.43.36-.54.23-1.06-.09-1.63-.09s-1.03.17-1.56.18c-1.34,0-3.31-.32-4.54-.17-.49.06-.77.4-.93.41-.19.02-.6-.24-.94-.25-3.4-.16-7.24.05-10.63.16-1.16.04-2.87.28-3.86.13-.08-.01-1.16-.41-1.19-.46-.13-.21.11-2.01-.1-2.01-.16.58-.06,1.21-.07,1.81,0,.2-.16.36-.16.38.02-1.47-.01-3.07.16-4.53Z"/>
  <path class="cls-2" d="M6.14,89.27c-.06-.63,0-1.38,0-2.03.04-.14.1-.13.16,0,0,.64.13,1.51-.16,2.03Z"/>
  <path class="cls-6" d="M6.3,85.98c-.01.41,0,.83,0,1.25h-.16c0-.49-.13-1.2.16-1.56,0,.1,0,.21,0,.31Z"/>
</svg>